<svg xmlns="http://www.w3.org/2000/svg" width="200" height="200" viewBox="0 0 200 200">
  <rect width="200" height="200" fill="#F1F5F9"/>
  <path d="M100,70 C83.43,70 70,83.43 70,100 C70,116.57 83.43,130 100,130 C116.57,130 130,116.57 130,100 C130,83.43 116.57,70 100,70 Z M100,120 C89.5,120 80.9,111.5 80.9,100 C80.9,89.5 89.4,80 100,80 C110.5,80 119.1,88.5 119.1,100 C119.1,110.5 110.5,120 100,120 Z" fill="#CBD5E0"/>
  <path d="M140,45 L140,155 M45,140 L155,140" stroke="#CBD5E0" stroke-width="10" stroke-linecap="round"/>
  <circle cx="120" cy="80" r="10" fill="#CBD5E0"/>
</svg> 